<svg width="21" height="21" viewBox="0 0 21 21" fill="none" xmlns="http://www.w3.org/2000/svg">
<path d="M19.7892 0.0575562H18.5501V1.29771H19.7892V0.0575562Z" fill="#DBDCE1"/>
<path d="M15.4534 8.74309V6.25833L15.4541 6.25907H17.9316V8.73938H20.4091V9.52553C20.4091 10.4343 20.3319 11.511 20.1545 12.3566C20.055 12.8291 19.9043 13.2987 19.7276 13.7498C19.5464 14.2112 19.3378 14.6533 19.1106 15.0494C18.8144 15.5665 18.4714 16.0629 18.0734 16.5295L18.0524 16.5541L18.0178 16.5948C17.9221 16.707 17.8276 16.818 17.7237 16.9263C17.6027 17.0556 17.4772 17.1782 17.3496 17.3008C15.7637 18.8293 13.6975 19.7841 11.537 20.0033C11.2771 20.0301 10.7552 20.0576 10.4946 20.0576C10.2333 20.0568 9.71207 20.0301 9.45222 20.0033C7.29172 19.7841 5.22552 18.8285 3.63967 17.3008C3.51197 17.1782 3.3865 17.0556 3.26547 16.9263C3.15643 16.8133 3.05815 16.6974 2.95873 16.5802L2.9584 16.5798L2.91579 16.5295C2.51783 16.0629 2.17484 15.5665 1.8786 15.0494C1.65141 14.6526 1.44278 14.2112 1.26163 13.7498C1.08494 13.2987 0.934223 12.8291 0.83473 12.3566C0.657295 11.5102 0.580078 10.4343 0.580078 9.52553V0.212854H5.53586V8.74309C5.53586 8.74309 5.53586 9.39698 5.54401 9.61098L5.5459 9.66091V9.66121C5.55632 9.93799 5.56653 10.2091 5.59526 10.4789C5.67691 11.245 5.84619 11.9717 6.19513 12.5862C6.29611 12.7638 6.39858 12.9361 6.52107 13.0996C7.26649 14.0946 8.40093 14.8413 9.81601 15.0494C9.98454 15.0739 10.3246 15.0954 10.4946 15.0954C10.6646 15.0954 11.0047 15.0739 11.1732 15.0494C12.5883 14.8413 13.7227 14.0946 14.4681 13.0996C14.5914 12.9361 14.6931 12.7638 14.7941 12.5862C15.143 11.9717 15.3123 11.245 15.394 10.4789C15.4227 10.2086 15.4329 9.93697 15.4433 9.65964L15.4452 9.61098C15.4534 9.39698 15.4534 8.74309 15.4534 8.74309Z" fill="#DBDCE1"/>
<path d="M16.0718 1.91816H17.9309L17.9309 3.77802H20.4091V6.25833H17.9309L17.9309 3.77876H16.0718V1.91816Z" fill="#DBDCE1"/>
</svg>
