<svg width="21" height="21" viewBox="0 0 21 21" fill="none" xmlns="http://www.w3.org/2000/svg">
<path d="M20.2013 0.0575562H18.9622V1.29771H20.2013V0.0575562Z" fill="#DBDCE1"/>
<path d="M15.8655 8.74309V6.25833L15.8662 6.25907H18.3437V8.73938H20.8212V9.52553C20.8212 10.4343 20.744 11.511 20.5666 12.3566C20.4671 12.8291 20.3164 13.2987 20.1397 13.7498C19.9585 14.2112 19.7499 14.6533 19.5227 15.0494C19.2265 15.5665 18.8835 16.0629 18.4855 16.5295L18.4645 16.5541L18.4299 16.5948C18.3343 16.707 18.2397 16.818 18.1359 16.9263C18.0148 17.0556 17.8894 17.1782 17.7617 17.3008C16.1758 18.8293 14.1096 19.7841 11.9491 20.0033C11.6893 20.0301 11.1673 20.0576 10.9067 20.0576C10.6454 20.0568 10.1242 20.0301 9.86433 20.0033C7.70383 19.7841 5.63763 18.8285 4.05177 17.3008C3.92408 17.1782 3.79861 17.0556 3.67758 16.9263C3.56854 16.8133 3.47026 16.6974 3.37084 16.5802L3.37051 16.5798L3.3279 16.5295C2.92994 16.0629 2.58694 15.5665 2.29071 15.0494C2.06352 14.6526 1.85489 14.2112 1.67374 13.7498C1.49705 13.2987 1.34633 12.8291 1.24684 12.3566C1.0694 11.5102 0.992188 10.4343 0.992188 9.52553V0.212854H5.94797V8.74309C5.94797 8.74309 5.94797 9.39698 5.95612 9.61098L5.95801 9.66091V9.66121C5.96843 9.93799 5.97864 10.2091 6.00736 10.4789C6.08902 11.245 6.2583 11.9717 6.60724 12.5862C6.70822 12.7638 6.81069 12.9361 6.93318 13.0996C7.6786 14.0946 8.81304 14.8413 10.2281 15.0494C10.3967 15.0739 10.7367 15.0954 10.9067 15.0954C11.0767 15.0954 11.4168 15.0739 11.5853 15.0494C13.0004 14.8413 14.1348 14.0946 14.8803 13.0996C15.0035 12.9361 15.1052 12.7638 15.2062 12.5862C15.5551 11.9717 15.7244 11.245 15.8061 10.4789C15.8348 10.2086 15.845 9.93697 15.8554 9.65964L15.8573 9.61098C15.8655 9.39698 15.8655 8.74309 15.8655 8.74309Z" fill="#DBDCE1"/>
<path d="M16.4839 1.91816H18.343L18.343 3.77802H20.8212V6.25833H18.343L18.343 3.77876H16.4839V1.91816Z" fill="#DBDCE1"/>
</svg>
